<svg xmlns="http://www.w3.org/2000/svg" viewBox="0 0 24 24"><path fill-rule="evenodd" clip-rule="evenodd" d="M23.778 8.253c-.72-1.992-3.121-3.182-6.421-3.182-.69 0-1.407.053-2.135.158-.284-.917-.59-1.631-.913-2.124-.41-.627-.877-.945-1.386-.945a1.16 1.16 0 00-.106.005c-.521.045-.94.396-1.246 1.042-.196.414-.351.956-.472 1.646-.945-.788-1.703-1.172-2.308-1.172-.274 0-.52.074-.729.22-.428.3-.615.812-.556 1.524.05.603.274 1.367.685 2.336l.022.052c-1.602 1.016-2.867 2.211-3.676 3.474L0 12.919l2.572 2.963-.082 3.919 4.528-1.629c.938.301 2.012.454 3.193.454.616 0 1.256-.043 1.906-.127l.014.046c.3.972.61 1.685.947 2.177.393.575.843.867 1.339.867.035 0 .07-.002.104-.005.52-.045.942-.405 1.252-1.07.188-.403.342-.939.46-1.598.946.79 1.705 1.175 2.311 1.175.276 0 .521-.075.732-.222.44-.307.624-.85.546-1.61-.061-.59-.284-1.343-.664-2.245 1.703-1.04 3.045-2.282 3.891-3.602.934-1.458 1.186-2.896.73-4.159zM10.837 9.608a28.463 28.463 0 01-.599-1.1c.193-.1.39-.196.589-.29-.006.451-.003.915.01 1.39zm-.162-3.086c-.382.164-.757.34-1.12.526-.392-.946-.497-1.48-.518-1.758.272.124.792.438 1.638 1.232zm-.464 10.494c-1.05 0-1.988-.136-2.785-.404l-.427-.144-2.846 1.024.045-2.195-1.44-1.66 2.855-1.026.236-.382c.651-1.05 1.706-2.064 3.063-2.95a36.269 36.269 0 002.14 3.558c.153 1.456.377 2.86.654 4.09-.51.06-1.012.09-1.495.09zm2.304-11.255c.138-1.105.326-1.653.451-1.912.039.055.083.124.133.211.2.352.405.852.599 1.461a18.71 18.71 0 00-1.193.327l.01-.087zm.706 10.912c-.09-.39-.173-.799-.25-1.224.296.372.592.73.888 1.07a16.45 16.45 0 01-.638.154zm1.15 3.223a2.442 2.442 0 01-.105-.162c-.208-.352-.424-.87-.626-1.505.396-.088.794-.192 1.19-.31-.136 1.13-.332 1.704-.46 1.976zm2.355-2.588l-.045-.042c.38-.157.753-.326 1.117-.505.26.634.428 1.173.488 1.57.008.059.014.11.018.153-.264-.12-.764-.422-1.578-1.176zm5.52-6.928c-.197.641-.61 1.336-1.192 2.008-.63.726-1.433 1.41-2.388 2.031a16.09 16.09 0 01-3.208 1.596 36.342 36.342 0 01-2.918-3.718l-.03-.321a36.366 36.366 0 01-.134-4.39c1.684-.592 3.404-.905 4.98-.905 1.326 0 2.496.221 3.383.64.789.373 1.3.87 1.52 1.479.17.469.166 1-.012 1.58z" fill="#F97A5E"/></svg>